<?xml version="1.0" standalone="no"?>
<!DOCTYPE svg PUBLIC "-//W3C//DTD SVG 20010904//EN"
 "http://www.w3.org/TR/2001/REC-SVG-20010904/DTD/svg10.dtd">
<svg version="1.0" xmlns="http://www.w3.org/2000/svg"
 width="4500.000000pt" height="4500.000000pt" viewBox="0 0 4500.000000 4500.000000"
 preserveAspectRatio="xMidYMid meet">

<g transform="translate(0.000000,4500.000000) scale(0.100000,-0.100000)"
fill="#000000" stroke="none">
<path d="M21185 43326 c-394 -65 -722 -257 -960 -561 -176 -225 -260 -457
-271 -745 -11 -270 50 -499 200 -754 173 -294 529 -644 1201 -1182 244 -196
330 -268 462 -390 224 -207 323 -381 323 -565 0 -130 -54 -244 -162 -344 -74
-69 -140 -108 -243 -142 -71 -24 -95 -27 -220 -27 -128 0 -147 2 -220 28 -222
77 -407 238 -586 511 -43 66 -85 129 -93 140 -13 19 -32 8 -427 -239 -228
-142 -420 -265 -428 -272 -11 -10 -6 -26 33 -97 143 -263 355 -526 551 -684
348 -280 791 -409 1283 -374 479 35 845 195 1129 494 283 298 415 661 400
1097 -15 425 -146 723 -480 1091 -116 128 -269 263 -693 611 -537 439 -805
674 -897 783 -74 88 -109 171 -115 267 -4 72 -2 83 27 143 36 72 107 142 183
181 157 80 380 69 568 -26 140 -71 328 -238 449 -397 l55 -72 40 37 c23 20
193 176 379 345 l337 309 -69 76 c-38 43 -113 120 -167 172 -335 324 -622 490
-986 571 -119 27 -478 36 -603 15z"/>
<path d="M25185 43000 c-2 -3 -63 -330 -136 -726 -73 -395 -134 -721 -135
-723 -2 -2 -116 18 -255 43 -138 26 -252 46 -254 44 -3 -4 -155 -830 -155
-844 0 -6 103 -29 240 -54 132 -24 246 -47 252 -51 9 -6 -63 -414 -273 -1551
-157 -849 -283 -1546 -280 -1550 5 -5 883 -170 960 -180 l25 -3 286 1550 287
1550 24 -3 c13 -2 145 -26 293 -53 147 -28 270 -49 271 -47 4 4 155 822 155
840 0 11 -68 27 -287 67 -159 29 -290 55 -292 57 -3 2 55 327 128 722 72 394
132 722 131 727 0 6 -116 32 -257 58 -142 26 -363 67 -491 91 -128 23 -235 40
-237 36z"/>
<path d="M14890 42233 c-256 -86 -467 -157 -469 -159 -5 -5 1760 -5294 1767
-5294 8 0 945 311 951 316 8 7 -1762 5294 -1772 5293 -7 0 -221 -71 -477 -156z"/>
<path d="M12620 41338 c-250 -116 -456 -212 -458 -213 -2 -2 2346 -5054 2353
-5062 1 -3 906 416 913 422 3 3 -2302 4965 -2342 5042 -11 21 -20 18 -466
-189z"/>
<path d="M28645 40478 c-351 -35 -745 -201 -1035 -435 -341 -276 -633 -737
-774 -1220 -147 -506 -104 -1022 125 -1503 182 -381 446 -652 814 -835 179
-89 287 -127 449 -160 285 -58 560 -38 887 65 51 16 95 27 97 25 2 -1 -33 -87
-78 -190 -45 -103 -80 -188 -78 -190 7 -7 885 -388 903 -392 18 -4 106 193
823 1838 441 1013 800 1844 798 1846 -6 6 -888 391 -905 395 -10 2 -42 -60
-102 -196 l-88 -200 -26 60 c-15 32 -31 70 -36 83 -24 59 -127 230 -193 319
-357 479 -979 751 -1581 690z m431 -1003 c308 -54 595 -232 755 -467 61 -90
127 -235 156 -345 22 -85 26 -119 27 -253 0 -175 -14 -260 -71 -424 -163 -469
-495 -780 -913 -856 -91 -16 -282 -14 -371 4 -355 74 -627 273 -774 566 -144
289 -163 590 -56 910 74 222 177 396 319 543 252 258 600 379 928 322z"/>
<path d="M10875 38644 c-220 -162 -400 -300 -399 -307 1 -7 271 -379 601 -827
772 -1050 822 -1121 904 -1295 100 -209 103 -421 10 -610 -88 -177 -277 -337
-476 -402 -67 -21 -98 -26 -190 -26 -269 1 -456 124 -756 499 -53 65 -367 488
-699 939 -331 451 -606 824 -610 828 -5 6 -767 -543 -822 -592 -7 -6 946
-1309 1171 -1601 228 -297 474 -572 620 -694 218 -181 469 -304 741 -363 120
-25 429 -26 550 0 266 57 529 183 794 381 345 258 565 537 670 851 91 270 101
608 26 899 -63 245 -282 641 -609 1096 -172 240 -1113 1515 -1119 1517 -4 1
-187 -130 -407 -293z"/>
<path d="M33450 37414 c-19 -2 -78 -9 -130 -15 -200 -23 -458 -103 -660 -204
-460 -231 -845 -659 -1025 -1140 -90 -240 -128 -467 -128 -755 0 -434 104
-767 354 -1139 249 -371 664 -734 1064 -931 332 -164 637 -230 999 -217 154 6
329 27 343 41 3 3 -48 212 -113 465 l-118 459 -156 -5 c-118 -4 -178 -1 -250
11 -270 47 -518 179 -748 401 -285 274 -416 575 -399 919 10 208 69 382 190
563 378 568 1046 733 1612 398 263 -155 495 -399 602 -634 47 -102 89 -270
104 -419 l13 -121 65 -15 c450 -100 863 -187 869 -181 15 15 14 369 -2 492
-75 574 -382 1090 -891 1497 -143 114 -289 207 -456 290 -229 114 -446 183
-694 221 -99 15 -377 27 -445 19z"/>
<path d="M5907 36313 c-615 -755 -1579 -1947 -1583 -1957 -3 -9 758 -633 2102
-1725 1160 -941 2111 -1711 2114 -1711 9 0 640 778 640 789 0 5 -425 354 -945
776 -520 422 -945 769 -945 772 0 2 236 295 524 650 289 356 523 650 520 655
-7 11 -745 609 -758 614 -7 3 -248 -286 -536 -641 -288 -355 -526 -645 -529
-645 -9 0 -755 607 -758 616 -1 5 233 299 522 654 l524 645 -22 22 c-35 35
-751 613 -759 613 -4 0 -54 -57 -111 -127z"/>
<path d="M36770 33224 c-1290 -817 -2351 -1489 -2359 -1493 -11 -7 45 -102
253 -432 148 -233 270 -426 271 -428 2 -1 353 218 780 489 428 270 779 489
781 487 3 -2 -140 -544 -317 -1203 -176 -659 -321 -1206 -322 -1214 0 -8 145
-244 322 -525 322 -508 341 -538 347 -533 1 2 165 620 364 1373 200 754 364
1372 367 1374 2 3 573 -91 1269 -208 695 -117 1269 -211 1274 -209 5 2 -141
242 -326 533 l-336 530 -1096 184 c-604 101 -1098 184 -1099 185 -1 1 607 387
1350 857 812 514 1352 862 1351 871 -1 10 -453 734 -518 830 -10 14 -298 -165
-2356 -1468z"/>
<path d="M6225 28264 c-271 -59 -465 -299 -465 -574 0 -273 190 -509 456 -565
94 -20 167 -19 258 5 110 28 190 73 272 155 220 217 231 566 25 796 -133 149
-358 225 -546 183z"/>
<path d="M40358 25091 c-1473 -395 -2680 -720 -2683 -722 -5 -6 32 -980 37
-983 2 -1 795 -191 1763 -421 968 -230 1763 -421 1767 -424 5 -4 -767 -260
-1715 -570 -947 -310 -1726 -567 -1731 -572 -13 -12 25 -990 38 -995 25 -9
5471 -1011 5475 -1008 6 5 -30 1007 -35 1013 -3 3 -2825 523 -3397 626 -54 10
-97 19 -95 20 2 2 773 254 1713 560 941 307 1711 558 1711 559 4 3 -32 856
-36 859 -3 3 -781 190 -1730 416 -949 227 -1735 415 -1748 419 -16 5 473 140
1680 461 937 250 1710 458 1718 462 13 6 13 54 -2 431 -9 232 -17 460 -17 506
-1 71 -3 82 -18 81 -10 0 -1223 -324 -2695 -718z"/>
<path d="M1840 24747 c-65 -136 -90 -241 -90 -384 0 -199 49 -359 163 -528 57
-83 187 -210 282 -273 l80 -53 -60 6 c-300 31 -437 40 -441 31 -4 -11 -83
-850 -80 -852 5 -6 4002 -370 4007 -365 7 7 99 984 93 990 -4 5 -1494 143
-1729 161 -436 33 -853 110 -1047 194 -120 52 -185 94 -263 171 -80 78 -119
148 -137 242 -15 80 5 164 66 283 l43 85 -191 89 c-105 50 -294 138 -419 198
l-229 107 -48 -102z"/>
<path d="M3790 21488 c-786 -87 -1347 -397 -1712 -948 -170 -256 -273 -535
-313 -849 -21 -167 -17 -486 10 -661 86 -573 347 -1027 779 -1355 288 -219
613 -356 966 -406 134 -20 512 -17 653 4 413 63 745 196 1032 416 85 64 256
232 328 321 368 456 513 1008 431 1645 -62 486 -214 872 -465 1180 -79 98
-259 268 -359 339 -78 56 -291 188 -296 183 -1 -1 -65 -202 -143 -447 l-140
-445 90 -84 c268 -249 404 -535 440 -929 18 -203 -15 -418 -91 -587 -93 -207
-275 -396 -482 -501 -80 -40 -199 -86 -206 -79 -3 2 -102 724 -220 1602 -118
879 -217 1601 -221 1604 -3 3 -40 1 -81 -3z m-565 -1130 c11 -51 286 -2130
282 -2134 -8 -8 -212 68 -301 113 -175 87 -295 195 -402 358 -111 171 -173
356 -196 583 -44 444 170 866 544 1073 64 35 66 35 73 7z"/>
<path d="M38500 18116 c-360 -52 -698 -197 -985 -421 -102 -80 -274 -256 -352
-362 -222 -299 -401 -737 -467 -1143 -74 -449 -11 -865 187 -1245 63 -119 176
-297 188 -293 6 2 511 526 621 644 l27 29 -38 95 c-112 282 -130 554 -55 840
99 380 298 654 581 802 180 94 307 122 533 117 87 -2 161 -7 165 -11 4 -4
-225 -694 -510 -1534 -284 -840 -514 -1532 -512 -1538 6 -16 286 -109 437
-146 223 -54 321 -65 580 -65 200 1 252 4 352 23 823 156 1418 741 1643 1617
126 490 76 975 -145 1415 -125 248 -303 478 -498 641 -306 256 -695 436 -1111
515 -169 32 -486 42 -641 20z m1392 -1509 c218 -294 255 -700 101 -1093 -143
-364 -437 -620 -798 -695 -90 -19 -235 -26 -235 -11 0 4 156 470 347 1035
l348 1029 89 -93 c48 -51 115 -128 148 -172z"/>
<path d="M5355 16253 c-430 -28 -919 -219 -1313 -513 -118 -87 -334 -304 -419
-420 -177 -241 -297 -509 -360 -807 -24 -115 -27 -149 -27 -338 -1 -180 2
-226 22 -323 60 -295 199 -593 384 -819 77 -94 211 -218 323 -298 92 -66 292
-173 400 -216 33 -12 63 -26 68 -29 4 -4 -80 -48 -188 -100 -107 -51 -195 -94
-195 -95 0 -1 96 -204 214 -451 144 -302 218 -448 227 -446 11 3 4901 2327
4946 2351 8 4 -55 147 -201 454 -118 247 -216 450 -218 453 -3 2 -387 -178
-853 -401 -467 -222 -851 -403 -852 -401 -2 2 12 63 31 137 94 366 89 682 -15
993 -100 302 -288 591 -508 783 -382 332 -949 520 -1466 486z m368 -1029 c421
-80 738 -389 849 -829 19 -75 23 -116 22 -245 0 -135 -4 -168 -27 -255 -90
-336 -323 -599 -681 -771 -219 -105 -366 -139 -581 -138 -179 2 -289 26 -439
97 -239 113 -396 272 -518 523 -156 323 -156 650 2 958 145 283 417 501 770
616 100 33 156 45 295 64 51 7 225 -4 308 -20z"/>
<path d="M35541 13506 c-160 -218 -293 -401 -296 -408 -2 -8 65 -63 160 -133
90 -66 161 -122 157 -126 -4 -3 -54 -16 -112 -28 -504 -110 -887 -386 -1147
-829 -208 -353 -281 -752 -217 -1192 69 -479 275 -878 630 -1220 375 -362 853
-607 1315 -674 123 -18 399 -21 516 -6 531 71 932 296 1235 693 217 284 333
588 357 939 9 119 1 341 -15 412 -4 20 -3 26 5 21 7 -4 366 -268 798 -587 432
-319 791 -581 797 -584 9 -3 585 767 594 795 2 5 -1000 748 -2225 1652 -1225
903 -2235 1648 -2244 1656 -15 12 -48 -29 -308 -381z m716 -1317 c164 -18 342
-80 488 -168 368 -224 575 -498 641 -850 22 -117 14 -333 -16 -446 -40 -152
-141 -333 -269 -483 -97 -115 -284 -240 -436 -290 -163 -55 -398 -70 -560 -37
-247 51 -475 178 -684 380 -168 163 -266 327 -329 552 -25 90 -27 112 -26 278
0 154 3 192 22 259 64 231 240 480 437 621 131 94 318 164 488 184 104 12 137
12 244 0z"/>
<path d="M8402 11599 c-419 -37 -793 -183 -1137 -442 -106 -80 -314 -290 -396
-399 -357 -479 -498 -1075 -388 -1647 103 -536 379 -992 799 -1318 375 -291
850 -437 1365 -420 183 6 303 23 460 64 487 127 945 466 1248 923 421 637 438
1544 41 2198 -117 193 -341 446 -517 585 -268 211 -579 357 -899 421 -205 42
-382 52 -576 35z m498 -999 c107 -27 247 -93 345 -161 100 -69 256 -235 324
-344 105 -168 153 -336 153 -540 0 -322 -116 -581 -377 -841 -175 -174 -364
-288 -572 -344 -100 -28 -339 -38 -451 -20 -222 36 -410 135 -582 309 -223
225 -330 471 -330 762 0 316 126 589 393 846 199 192 405 303 642 348 116 21
343 14 455 -15z"/>
<path d="M10530 6683 c-877 -1252 -1595 -2283 -1595 -2290 0 -11 813 -589 820
-581 27 33 3195 4561 3195 4567 0 7 -812 581 -821 581 -2 -1 -722 -1025 -1599
-2277z"/>
<path d="M30337 8210 c-697 -365 -800 -421 -1032 -558 -613 -364 -863 -603
-1070 -1027 -250 -511 -300 -1102 -146 -1712 127 -499 396 -1008 748 -1415
424 -490 1041 -832 1622 -899 146 -16 426 -7 566 20 310 58 642 172 1034 355
98 46 461 230 805 411 507 265 626 331 621 344 -9 22 -2506 4794 -2514 4803
-3 4 -289 -141 -634 -322z m981 -2566 c437 -834 790 -1520 785 -1524 -16 -16
-393 -211 -500 -259 -240 -108 -464 -177 -672 -206 -157 -23 -375 -16 -498 14
-478 118 -875 479 -1153 1046 -150 308 -214 536 -227 810 -13 295 55 564 197
776 107 160 349 356 655 532 86 50 607 326 615 326 3 1 362 -682 798 -1515z"/>
<path d="M14323 7380 c-180 -19 -384 -72 -560 -145 -110 -46 -313 -154 -313
-166 0 -4 138 -162 306 -351 169 -188 308 -344 309 -346 2 -2 47 10 101 27
152 46 253 62 409 62 165 0 276 -17 425 -67 216 -72 386 -172 531 -311 141
-136 229 -281 285 -470 34 -116 44 -342 21 -476 -9 -49 -18 -91 -20 -94 -3 -2
-670 279 -1484 626 -813 346 -1484 631 -1491 633 -23 5 -147 -287 -206 -489
-169 -573 -130 -1092 121 -1584 163 -321 415 -591 746 -795 195 -121 468 -239
681 -295 605 -157 1228 -31 1739 353 116 87 319 295 408 418 311 429 493 994
465 1440 -51 808 -502 1445 -1265 1790 -235 107 -483 184 -706 220 -139 23
-383 33 -502 20z m122 -2625 c539 -230 988 -422 998 -427 17 -9 14 -13 -24
-46 -98 -86 -237 -183 -323 -226 -308 -154 -696 -134 -1051 52 -287 151 -488
402 -571 710 -25 96 -38 371 -16 358 4 -2 448 -192 987 -421z"/>
<path d="M24531 6119 c-295 -26 -622 -109 -881 -223 -391 -172 -717 -480 -930
-879 l-50 -94 451 -128 452 -128 40 49 c251 307 578 477 995 515 225 20 426
-16 617 -111 177 -88 309 -209 418 -383 54 -86 125 -243 114 -254 -3 -3 -722
-123 -1597 -268 -875 -144 -1593 -264 -1595 -267 -2 -2 4 -62 15 -132 113
-732 417 -1252 939 -1600 364 -243 806 -357 1265 -326 497 34 884 168 1224
425 103 77 287 260 363 360 416 545 537 1191 358 1907 -95 379 -268 689 -533
953 -443 441 -1015 642 -1665 584z m1283 -2550 c-75 -232 -153 -368 -286 -495
-216 -206 -484 -316 -814 -331 -405 -19 -797 188 -984 520 -18 32 -30 61 -26
64 6 6 2138 361 2144 357 2 -1 -14 -53 -34 -115z"/>
<path d="M18869 4807 c-353 -617 -842 -1470 -1086 -1896 -243 -426 -441 -777
-438 -780 5 -4 959 -120 996 -121 10 0 234 381 655 1114 351 613 642 1112 646
1108 3 -4 169 -558 367 -1232 199 -673 363 -1226 365 -1228 7 -6 1009 -122
1014 -117 6 5 -1217 4177 -1228 4188 -4 5 -135 24 -291 42 -156 19 -300 36
-321 39 l-36 6 -643 -1123z"/>
</g>
</svg>
